<?xml version="1.0" encoding="utf-8"?>
<!-- Generator: Adobe Illustrator 16.0.0, SVG Export Plug-In . SVG Version: 6.00 Build 0)  -->
<!DOCTYPE svg PUBLIC "-//W3C//DTD SVG 1.1//EN" "http://www.w3.org/Graphics/SVG/1.1/DTD/svg11.dtd">
<svg version="1.1" id="Layer_1" xmlns="http://www.w3.org/2000/svg" xmlns:xlink="http://www.w3.org/1999/xlink" x="0px" y="0px"
	 width="16.996px" height="16.984px" viewBox="0 0 16.996 16.984" enable-background="new 0 0 16.996 16.984" xml:space="preserve">
<g>
	<path fill="#FFFFFF" d="M16.471,14.454l-4.025-3.422c-0.418-0.375-0.862-0.547-1.221-0.529c0.949-1.113,1.522-2.557,1.522-4.133
		C12.748,2.852,9.895,0,6.374,0C2.854,0,0,2.852,0,6.37c0,3.518,2.854,6.37,6.374,6.37c1.579,0,3.022-0.573,4.135-1.523
		c-0.017,0.359,0.156,0.804,0.531,1.22l3.424,4.023c0.586,0.65,1.543,0.706,2.127,0.122S17.121,15.04,16.471,14.454L16.471,14.454z
		 M6.374,10.615c-2.347,0-4.25-1.902-4.25-4.247c0-2.346,1.903-4.247,4.25-4.247s4.25,1.9,4.25,4.247
		C10.624,8.713,8.721,10.615,6.374,10.615z"/>
</g>
</svg>
