<?xml version="1.0" encoding="utf-8"?>
<!-- Generator: Adobe Illustrator 16.0.0, SVG Export Plug-In . SVG Version: 6.00 Build 0)  -->
<!DOCTYPE svg PUBLIC "-//W3C//DTD SVG 1.1//EN" "http://www.w3.org/Graphics/SVG/1.1/DTD/svg11.dtd">
<svg version="1.1" id="Layer_1" xmlns="http://www.w3.org/2000/svg" xmlns:xlink="http://www.w3.org/1999/xlink" x="0px" y="0px"
	 width="63.011px" height="45.002px" viewBox="0 0 63.011 45.002" enable-background="new 0 0 63.011 45.002" xml:space="preserve">
<path opacity="0.5" fill="#FFFFFF" d="M61.558,10.483l-0.246-1.978l-0.139,0.139c-0.377-1.454-1.073-3.433-2.244-4.613
	c-2.291-2.4-4.823-2.646-6.184-2.779l-0.398-0.042C44.104,0.61,31.629,0.603,31.481,0.603c-0.125,0-12.597,0.007-20.89,0.613
	l-0.367,0.039C8.866,1.389,6.339,1.639,4.069,4.018c-1.991,2.007-2.601,6.273-2.628,6.469c-0.024,0.199-0.598,4.926-0.598,9.753
	v4.512c0,4.814,0.573,9.553,0.6,9.77c0.026,0.181,0.646,4.442,2.613,6.442c2.11,2.21,4.744,2.529,6.316,2.722
	c0.292,0.036,0.548,0.064,0.85,0.118c4.741,0.454,19.645,0.591,20.277,0.597h0.005h0.006c0.125,0,12.61-0.03,20.895-0.625
	l0.353-0.036c1.361-0.132,3.894-0.377,6.173-2.766c1.989-2.008,2.612-6.275,2.64-6.473c0.024-0.199,0.598-4.927,0.598-9.753v-4.514
	C62.155,15.419,61.582,10.683,61.558,10.483z"/>
<g>
	<path fill="#2C2C2C" d="M31.504,45.002h-0.005c-0.649-0.006-15.964-0.146-20.835-0.613c-0.31-0.055-0.573-0.084-0.873-0.121
		c-1.616-0.197-4.322-0.525-6.49-2.797c-2.021-2.055-2.658-6.434-2.685-6.619C0.589,34.629,0,29.76,0,24.813v-4.635
		c0-4.959,0.589-9.817,0.614-10.021c0.027-0.201,0.654-4.584,2.7-6.647C5.646,1.065,8.243,0.808,9.639,0.67l0.377-0.04
		C18.537,0.007,31.352,0,31.48,0c0.152,0,12.971,0.007,21.439,0.625l0.409,0.042c1.398,0.136,4,0.39,6.354,2.855
		c1.203,1.213,1.918,3.247,2.306,4.74l0.143-0.143l0.253,2.032c0.025,0.205,0.614,5.072,0.626,10.019v4.638
		c0,4.959-0.589,9.816-0.614,10.021c-0.028,0.203-0.668,4.588-2.712,6.65c-2.342,2.455-4.944,2.707-6.343,2.842l-0.362,0.037
		c-8.513,0.611-21.341,0.643-21.47,0.643H31.504z M31.504,2c-0.151,0-12.895,0.007-21.295,0.62L9.836,2.66
		C8.619,2.78,6.581,2.982,4.748,4.904c-1.326,1.337-2.002,4.431-2.151,5.511C2.593,10.448,2,15.344,2,20.178v4.635
		c0,4.822,0.593,9.729,0.599,9.777c0.152,1.064,0.838,4.166,2.139,5.49c1.684,1.764,3.857,2.027,5.295,2.201
		c0.351,0.043,0.659,0.082,0.914,0.131c4.661,0.441,20.192,0.586,20.564,0.59c0.316-0.002,12.946-0.035,21.28-0.633l0.357-0.037
		c1.22-0.117,3.261-0.316,5.103-2.246c1.326-1.338,2.011-4.436,2.163-5.518c0.004-0.031,0.597-4.926,0.597-9.76v-4.635
		c-0.01-4.314-0.486-8.698-0.591-9.607l-0.021-0.148c-0.154-1.083-0.841-4.182-2.148-5.501c-1.854-1.942-3.896-2.141-5.114-2.26
		l-0.407-0.042C44.377,2.007,31.632,2,31.504,2z M24.185,32.079V11.599l19.645,10.274L24.185,32.079z M26.185,14.902v13.884
		l13.318-6.918L26.185,14.902z"/>
</g>
</svg>
