<?xml version="1.0" encoding="utf-8"?>
<!-- Generator: Adobe Illustrator 16.0.0, SVG Export Plug-In . SVG Version: 6.00 Build 0)  -->
<!DOCTYPE svg PUBLIC "-//W3C//DTD SVG 1.1//EN" "http://www.w3.org/Graphics/SVG/1.1/DTD/svg11.dtd">
<svg version="1.1" id="Layer_1" xmlns="http://www.w3.org/2000/svg" xmlns:xlink="http://www.w3.org/1999/xlink" x="0px" y="0px"
	 width="203px" height="42.001px" viewBox="0 0 203 42.001" enable-background="new 0 0 203 42.001" xml:space="preserve">
<g>
	<path fill="#333333" d="M66.157,28.504c0,1.443-0.526,2.576-1.578,3.397c-1.052,0.821-2.503,1.231-4.354,1.231
		s-3.365-0.284-4.544-0.854V29.77c0.746,0.348,1.539,0.621,2.378,0.821s1.621,0.3,2.345,0.3c1.059,0,1.841-0.199,2.345-0.6
		c0.503-0.399,0.755-0.936,0.755-1.609c0-0.606-0.231-1.121-0.694-1.543c-0.463-0.422-1.418-0.922-2.865-1.499
		c-1.493-0.6-2.544-1.284-3.156-2.054s-0.918-1.695-0.918-2.776c0-1.354,0.485-2.42,1.455-3.197c0.97-0.777,2.272-1.166,3.906-1.166
		c1.567,0,3.126,0.34,4.678,1.021l-0.851,2.165c-1.455-0.607-2.753-0.91-3.895-0.91c-0.865,0-1.522,0.187-1.969,0.56
		c-0.448,0.374-0.672,0.868-0.672,1.482c0,0.422,0.089,0.783,0.269,1.083c0.179,0.3,0.474,0.583,0.884,0.849
		c0.41,0.267,1.149,0.618,2.216,1.055c1.201,0.496,2.082,0.959,2.642,1.388c0.56,0.43,0.97,0.914,1.231,1.454
		C66.026,27.135,66.157,27.771,66.157,28.504z"/>
	<path fill="#333333" d="M77.432,18.724c-1.537,0-2.746,0.54-3.626,1.62c-0.88,1.081-1.321,2.572-1.321,4.475
		c0,1.991,0.423,3.496,1.271,4.518c0.847,1.022,2.072,1.532,3.677,1.532c0.694,0,1.365-0.067,2.015-0.205
		c0.649-0.137,1.324-0.313,2.025-0.527v2.276c-1.283,0.48-2.738,0.721-4.365,0.721c-2.395,0-4.234-0.719-5.518-2.159
		c-1.284-1.439-1.925-3.499-1.925-6.178c0-1.688,0.312-3.164,0.935-4.43s1.524-2.235,2.703-2.909c1.179-0.673,2.563-1.01,4.152-1.01
		c1.671,0,3.216,0.348,4.633,1.043L81.125,19.7c-0.552-0.259-1.136-0.487-1.751-0.683C78.758,18.821,78.11,18.724,77.432,18.724z"/>
	<path fill="#333333" d="M88.819,26.428v6.483h-2.675V16.68h4.623c2.112,0,3.675,0.393,4.689,1.177
		c1.015,0.785,1.522,1.969,1.522,3.553c0,2.02-1.059,3.459-3.178,4.319l4.623,7.183h-3.044l-3.917-6.483H88.819z M88.819,24.229
		h1.858c1.246,0,2.149-0.229,2.708-0.688s0.839-1.14,0.839-2.042c0-0.917-0.302-1.577-0.907-1.976c-0.604-0.4-1.515-0.6-2.731-0.6
		h-1.768V24.229z"/>
	<path fill="#333333" d="M111.196,32.911h-9.256V16.68h9.256v2.243h-6.581v4.419h6.167v2.22h-6.167v5.097h6.581V32.911z"/>
	<path fill="#333333" d="M125.135,32.911h-9.256V16.68h9.256v2.243h-6.58v4.419h6.166v2.22h-6.166v5.097h6.58V32.911z"/>
	<path fill="#333333" d="M143.45,32.911h-3.279l-8.047-12.934h-0.09l0.056,0.722c0.105,1.377,0.157,2.635,0.157,3.774v8.438h-2.429
		V16.68h3.246l8.024,12.867h0.067c-0.016-0.17-0.045-0.789-0.09-1.859c-0.045-1.069-0.066-1.903-0.066-2.503V16.68h2.45V32.911z"/>
	<path fill="#333333" d="M158.352,28.504c0,1.443-0.525,2.576-1.578,3.397s-2.503,1.231-4.354,1.231s-3.365-0.284-4.544-0.854V29.77
		c0.746,0.348,1.538,0.621,2.378,0.821s1.621,0.3,2.346,0.3c1.059,0,1.84-0.199,2.344-0.6c0.504-0.399,0.756-0.936,0.756-1.609
		c0-0.606-0.231-1.121-0.693-1.543c-0.463-0.422-1.418-0.922-2.865-1.499c-1.493-0.6-2.545-1.284-3.156-2.054
		c-0.612-0.77-0.918-1.695-0.918-2.776c0-1.354,0.484-2.42,1.455-3.197c0.969-0.777,2.271-1.166,3.906-1.166
		c1.566,0,3.125,0.34,4.678,1.021l-0.851,2.165c-1.455-0.607-2.753-0.91-3.896-0.91c-0.865,0-1.521,0.187-1.969,0.56
		c-0.448,0.374-0.672,0.868-0.672,1.482c0,0.422,0.09,0.783,0.269,1.083c0.179,0.3,0.474,0.583,0.884,0.849
		c0.41,0.267,1.149,0.618,2.217,1.055c1.201,0.496,2.082,0.959,2.641,1.388c0.561,0.43,0.971,0.914,1.231,1.454
		C158.221,27.135,158.352,27.771,158.352,28.504z"/>
	<path fill="#333333" d="M168.317,32.911h-2.675V18.956h-4.813V16.68h12.301v2.276h-4.813V32.911z"/>
	<path fill="#333333" d="M186.039,32.911h-9.256V16.68h9.256v2.243h-6.581v4.419h6.167v2.22h-6.167v5.097h6.581V32.911z"/>
	<path fill="#333333" d="M193.396,26.428v6.483h-2.674V16.68h4.622c2.111,0,3.675,0.393,4.689,1.177
		c1.015,0.785,1.522,1.969,1.522,3.553c0,2.02-1.061,3.459-3.179,4.319L203,32.911h-3.044l-3.917-6.483H193.396z M193.396,24.229
		h1.858c1.246,0,2.149-0.229,2.709-0.688s0.839-1.14,0.839-2.042c0-0.917-0.302-1.577-0.906-1.976c-0.604-0.4-1.516-0.6-2.73-0.6
		h-1.77V24.229z"/>
	<path fill="#333333" d="M19.353,15.109c-3.667,0-6.65,2.959-6.65,6.597s2.983,6.597,6.65,6.597c3.667,0,6.65-2.959,6.65-6.597
		S23.02,15.109,19.353,15.109z M19.353,26.611c-2.727,0-4.945-2.201-4.945-4.905c0-2.705,2.218-4.905,4.945-4.905
		s4.945,2.2,4.945,4.905C24.298,24.41,22.08,26.611,19.353,26.611z"/>
	<path fill="#333333" d="M19.353,12.36c-5.195,0-9.422,4.192-9.422,9.346s4.227,9.346,9.422,9.346s9.422-4.192,9.422-9.346
		S24.548,12.36,19.353,12.36z M19.353,29.36c-4.255,0-7.717-3.434-7.717-7.654s3.462-7.654,7.717-7.654
		c4.255,0,7.717,3.434,7.717,7.654S23.608,29.36,19.353,29.36z"/>
	<path fill="#333333" d="M28.305,11.889h3.467c1.222,0,2.216-0.986,2.216-2.199V8.372c0-1.212-0.994-2.199-2.216-2.199h-3.467
		c-1.222,0-2.217,0.986-2.217,2.199v1.317C26.088,10.902,27.083,11.889,28.305,11.889z M27.794,8.372
		c0-0.275,0.234-0.507,0.511-0.507h3.467c0.277,0,0.511,0.232,0.511,0.507v1.317c0,0.275-0.234,0.508-0.511,0.508h-3.467
		c-0.277,0-0.511-0.232-0.511-0.508V8.372z"/>
	<path fill="#333333" d="M5.854,11.381h4.491c1.222,0,2.217-0.986,2.217-2.199V8.88c0-1.212-0.995-2.199-2.217-2.199H5.854
		c-1.222,0-2.217,0.986-2.217,2.199v0.302C3.637,10.395,4.631,11.381,5.854,11.381z M5.342,8.88c0-0.275,0.234-0.507,0.512-0.507
		h4.491c0.277,0,0.512,0.232,0.512,0.507v0.302c0,0.275-0.234,0.507-0.512,0.507H5.854c-0.277,0-0.512-0.232-0.512-0.507V8.88z"/>
	<path fill="#333333" d="M34.044,3.43c-0.09-0.031-0.186-0.047-0.281-0.047h-0.06c-0.132-1.447-0.919-2.979-2.81-3.365
		C30.836,0.006,30.779,0,30.721,0h-1.435h-0.718h-2.224c-1.222,0-2.217,0.986-2.217,2.198v1.185H12.45H7.673
		C3.442,3.383,0,6.797,0,10.994v26.218c0,0.01,0.002,0.019,0.003,0.028c0.001,0.039,0.005,0.076,0.011,0.114
		c0.003,0.017,0.006,0.033,0.01,0.05c0.009,0.037,0.021,0.074,0.034,0.109c0.004,0.012,0.007,0.023,0.012,0.034
		c0.02,0.045,0.043,0.087,0.07,0.129c0.008,0.011,0.017,0.021,0.025,0.032c0.021,0.029,0.044,0.057,0.069,0.084
		c0.012,0.012,0.025,0.024,0.038,0.036c0.012,0.011,0.022,0.022,0.034,0.033l4.777,3.942c0.153,0.127,0.346,0.196,0.545,0.196
		h37.001l0,0l0,0h0c0.056,0,0.111-0.008,0.164-0.019c0.015-0.002,0.029-0.006,0.043-0.01c0.046-0.012,0.091-0.026,0.134-0.045
		c0.006-0.003,0.014-0.004,0.02-0.008c0.002,0,0.003-0.002,0.005-0.003c0.066-0.031,0.127-0.072,0.183-0.119
		c0.007-0.006,0.015-0.011,0.021-0.018c0.051-0.046,0.097-0.099,0.135-0.157c0.007-0.01,0.013-0.019,0.019-0.028
		c0.029-0.048,0.056-0.098,0.076-0.152c0.004-0.011,0.006-0.023,0.01-0.034c0.003-0.012,0.006-0.023,0.009-0.034
		c0.019-0.069,0.029-0.14,0.03-0.21c0-0.003,0.001-0.006,0.001-0.01v-3.942V18.35C43.484,12.889,43.484,6.699,34.044,3.43z
		 M1.705,36.366V15.252h7.396c-1.199,1.867-1.897,4.081-1.897,6.454c0,6.645,5.45,12.051,12.149,12.051
		c6.699,0,12.149-5.406,12.149-12.051c0-2.374-0.698-4.587-1.897-6.454h7.396v21.114H1.705z M29.797,21.706
		c0,5.712-4.685,10.359-10.444,10.359c-5.759,0-10.444-4.647-10.444-10.359c0-5.712,4.685-10.36,10.444-10.36
		C25.112,11.346,29.797,15.994,29.797,21.706z M38.707,36.815V16.21l3.072,2.535v18.467v2.14L38.707,36.815z M41.766,16.535
		l-3.06-2.526v-3.016c0-1.444-0.408-2.795-1.115-3.947C41.178,9.567,41.693,12.931,41.766,16.535z M31.502,3.383V2.201
		c0.307,0.343,0.439,0.787,0.49,1.182H31.502z M25.833,2.198c0-0.274,0.234-0.507,0.512-0.507h2.224h0.718
		c0.277,0,0.512,0.232,0.512,0.507v1.185h-3.965V2.198z M7.673,5.074h4.777h18.583c3.291,0,5.968,2.655,5.968,5.919v2.567h-8.704
		c-2.222-2.399-5.409-3.906-8.944-3.906c-3.535,0-6.722,1.506-8.944,3.906H1.705v-2.567C1.705,7.729,4.382,5.074,7.673,5.074z
		 M3.21,38.058h34.335l2.728,2.252H5.938L3.21,38.058z"/>
</g>
</svg>
